<svg xmlns="http://www.w3.org/2000/svg" viewBox="0 0 56.25 31.18"><defs><style>.cls-1{fill:#fff;}</style></defs><title>Fichier 8</title><g id="Calque_2" data-name="Calque 2"><g id="invariants"><circle class="cls-1" cx="14.2" cy="1.25" r="1.25"/><circle class="cls-1" cx="38.22" cy="1.25" r="1.25"/><circle class="cls-1" cx="18.8" cy="25.88" r="1.25"/><circle class="cls-1" cx="41.99" cy="25.88" r="1.25"/><circle class="cls-1" cx="38.22" cy="25.88" r="1.25"/><circle class="cls-1" cx="54.99" cy="17.54" r="1.25"/><circle class="cls-1" cx="54.99" cy="9.12" r="1.25"/><circle class="cls-1" cx="38.22" cy="9.12" r="1.25"/><circle class="cls-1" cx="38.22" cy="17.54" r="1.25"/><circle class="cls-1" cx="9.39" cy="25.95" r="1.25"/><circle class="cls-1" cx="14.14" cy="21.17" r="1.25"/><path class="cls-1" d="M41.31,25.88a5.3,5.3,0,1,1,5.3,5.3A5.3,5.3,0,0,1,41.31,25.88Zm1.15,0a4.15,4.15,0,1,0,4.15-4.14A4.15,4.15,0,0,0,42.46,25.88Z"/><path class="cls-1" d="M8.84,25.88a5.3,5.3,0,1,1,5.3,5.3A5.3,5.3,0,0,1,8.84,25.88Zm1.15,0a4.15,4.15,0,1,0,4.15-4.14A4.15,4.15,0,0,0,10,25.88Z"/><path class="cls-1" d="M38.22,26.47a.58.58,0,0,0,.58-.59V8.55a1.93,1.93,0,0,1,1.94-1.93H52.47a1.93,1.93,0,0,1,1.94,1.93V23.36a1.94,1.94,0,0,1-1.94,1.94.59.59,0,0,0,0,1.17,3.11,3.11,0,0,0,3.11-3.11V8.55a3.1,3.1,0,0,0-3.11-3.1H40.74a3.1,3.1,0,0,0-3.11,3.1V25.88A.58.58,0,0,0,38.22,26.47Z"/><path class="cls-1" d="M0,21.17V1.25A.58.58,0,0,1,.58.67H38.22a.58.58,0,0,1,.58.58V21.17a.58.58,0,0,1-.58.59H.58A.58.58,0,0,1,0,21.17ZM37.63,1.84H1.17V20.59H37.63Z"/><path class="cls-1" d="M.58,18.12H55A.59.59,0,1,0,55,17H.58a.59.59,0,0,0,0,1.17Z"/><path class="cls-1" d="M18.51,26.47H42.2c.2,0,.37-.26.37-.59s-.17-.58-.37-.58H18.51c-.21,0-.37.26-.37.58S18.3,26.47,18.51,26.47Z"/><circle class="cls-1" cx="51.28" cy="25.88" r="1.51"/><path class="cls-1" d="M46,14.45V9.12a.58.58,0,0,1,.59-.58H55a.58.58,0,0,1,.59.58v5.33A.58.58,0,0,1,55,15H46.61A.58.58,0,0,1,46,14.45Zm8.39-4.74H47.19v4.15h7.22Z"/></g></g></svg>