<svg xmlns="http://www.w3.org/2000/svg" viewBox="0 0 486.65 131.52"><defs><style>.cls-1{fill:#fff;}.cls-2{fill:#f2bb31;}.cls-3,.cls-4{fill:none;stroke:#fff;stroke-miterlimit:10;}.cls-4{stroke-dasharray:5.2 6.24;}.cls-5{fill:#efb832;}</style></defs><title>Fichier 1</title><g id="Calque_2" data-name="Calque 2"><g id="contenus"><path class="cls-1" d="M413.71,121.07h-9.62a1.16,1.16,0,0,1-1.15-1.16v-9.62a1.16,1.16,0,0,1,1.15-1.15h9.62a1.16,1.16,0,0,1,1.16,1.15v9.62A1.16,1.16,0,0,1,413.71,121.07Zm-8.46-2.31h7.31v-7.31h-7.31Z"/><circle class="cls-1" cx="413.71" cy="110.29" r="2.52"/><circle class="cls-1" cx="404.09" cy="110.29" r="2.52"/><path class="cls-1" d="M430.62,121.07H421a1.15,1.15,0,0,1-1.15-1.16v-9.62a1.15,1.15,0,0,1,1.15-1.15h9.62a1.15,1.15,0,0,1,1.15,1.15v9.62A1.15,1.15,0,0,1,430.62,121.07Zm-8.46-2.31h7.3v-7.31h-7.3Z"/><circle class="cls-1" cx="430.62" cy="110.29" r="2.52"/><circle class="cls-1" cx="421" cy="110.29" r="2.52"/><path class="cls-1" d="M447.49,121.07h-9.62a1.16,1.16,0,0,1-1.16-1.16v-9.62a1.16,1.16,0,0,1,1.16-1.15h9.62a1.16,1.16,0,0,1,1.15,1.15v9.62A1.16,1.16,0,0,1,447.49,121.07ZM439,118.76h7.31v-7.31H439Z"/><circle class="cls-1" cx="447.49" cy="110.29" r="2.52"/><circle class="cls-1" cx="437.87" cy="110.29" r="2.52"/><path class="cls-1" d="M413.71,104h-9.62a1.15,1.15,0,0,1-1.15-1.15V93.26a1.16,1.16,0,0,1,1.15-1.16h9.62a1.16,1.16,0,0,1,1.16,1.16v9.62A1.15,1.15,0,0,1,413.71,104Zm-8.46-2.31h7.31v-7.3h-7.31Z"/><circle class="cls-1" cx="413.71" cy="102.88" r="2.52"/><circle class="cls-1" cx="413.71" cy="93.26" r="2.52"/><circle class="cls-1" cx="404.09" cy="93.26" r="2.52"/><circle class="cls-1" cx="404.09" cy="102.88" r="2.52"/><path class="cls-1" d="M430.62,104H421a1.14,1.14,0,0,1-1.15-1.15V93.26A1.15,1.15,0,0,1,421,92.1h9.62a1.15,1.15,0,0,1,1.15,1.16v9.62A1.14,1.14,0,0,1,430.62,104Zm-8.46-2.31h7.3v-7.3h-7.3Z"/><circle class="cls-1" cx="430.62" cy="102.88" r="2.52"/><circle class="cls-1" cx="456.28" cy="78.38" r="2.52"/><circle class="cls-1" cx="392.8" cy="88.78" r="2.52"/><circle class="cls-1" cx="456.28" cy="88.78" r="2.52"/><circle class="cls-1" cx="392.8" cy="78.38" r="2.52"/><circle class="cls-1" cx="424.54" cy="71.11" r="2.52"/><circle class="cls-1" cx="424.54" cy="59.28" r="2.52"/><circle class="cls-1" cx="430.62" cy="93.26" r="2.52"/><circle class="cls-1" cx="421" cy="93.26" r="2.52"/><circle class="cls-1" cx="421" cy="102.88" r="2.52"/><path class="cls-1" d="M392.8,89.93a1.19,1.19,0,0,1-.58-.15,1.17,1.17,0,0,1-.58-1V78.38a1.17,1.17,0,0,1,.56-1L424,58.29a1.16,1.16,0,0,1,1.19,2L394,79v7.73l30-17.54a1.16,1.16,0,0,1,1.58.41,1.17,1.17,0,0,1-.41,1.59L393.38,89.78A1.19,1.19,0,0,1,392.8,89.93Z"/><path class="cls-1" d="M456.28,89.93a1.19,1.19,0,0,1-.58-.15L424,71.22a1.16,1.16,0,1,1,1.17-2l30,17.54V79L424,60.27a1.16,1.16,0,1,1,1.19-2l31.74,19.1a1.15,1.15,0,0,1,.56,1v10.4a1.15,1.15,0,0,1-.58,1A1.19,1.19,0,0,1,456.28,89.93Z"/><path class="cls-1" d="M397.54,123.13a1.15,1.15,0,0,1-1.15-1.16V86.49a1.16,1.16,0,0,1,2.31,0V122A1.16,1.16,0,0,1,397.54,123.13Z"/><path class="cls-1" d="M454.07,93.82v-7a1.16,1.16,0,0,0-2.31,0V93A6.48,6.48,0,0,1,454.07,93.82Z"/><path class="cls-1" d="M451.76,102.87v19.3a1.16,1.16,0,0,0,2.31,0V103A16,16,0,0,1,451.76,102.87Z"/><path class="cls-1" d="M402.28,84.39a1.11,1.11,0,0,1-.52-.13l-9.49-4.85a1.16,1.16,0,0,1,1.06-2.06l9.48,4.85a1.16,1.16,0,0,1-.53,2.19Z"/><path class="cls-1" d="M402.28,84.39h0a1.16,1.16,0,0,1-1.1-1.21l.52-10.88a1.17,1.17,0,0,1,1.21-1.1,1.16,1.16,0,0,1,1.1,1.21l-.52,10.88A1.16,1.16,0,0,1,402.28,84.39Z"/><path class="cls-1" d="M412.77,78.29a1.25,1.25,0,0,1-.5-.11l-10-4.78a1.15,1.15,0,1,1,1-2.08l10,4.77a1.16,1.16,0,0,1-.5,2.2Z"/><path class="cls-1" d="M413.25,78h-.05a1.14,1.14,0,0,1-1.1-1.2l.48-11a1.16,1.16,0,1,1,2.31.1l-.48,11A1.16,1.16,0,0,1,413.25,78Z"/><path class="cls-1" d="M424.54,71.37a1.09,1.09,0,0,1-.43-.08L413.3,66.92a1.16,1.16,0,0,1-.63-1.51,1.14,1.14,0,0,1,1.5-.63L425,69.15a1.15,1.15,0,0,1-.44,2.22Z"/><path class="cls-1" d="M446.8,84.39a1.16,1.16,0,0,1-.53-2.19l9.49-4.85a1.16,1.16,0,0,1,1.05,2.06l-9.48,4.85A1.12,1.12,0,0,1,446.8,84.39Z"/><path class="cls-1" d="M446.8,84.39a1.15,1.15,0,0,1-1.15-1.1l-.53-10.88a1.16,1.16,0,0,1,1.1-1.21,1.17,1.17,0,0,1,1.21,1.1L448,83.18a1.17,1.17,0,0,1-1.1,1.21Z"/><path class="cls-1" d="M436.32,78.29a1.16,1.16,0,0,1-.5-2.2l10-4.77a1.15,1.15,0,0,1,1,2.08l-10,4.78A1.33,1.33,0,0,1,436.32,78.29Z"/><path class="cls-1" d="M435.83,78a1.16,1.16,0,0,1-1.15-1.11l-.49-11a1.16,1.16,0,1,1,2.31-.1l.49,11a1.15,1.15,0,0,1-1.11,1.2Z"/><path class="cls-1" d="M424.54,71.37a1.15,1.15,0,0,1-.43-2.22l10.8-4.37a1.16,1.16,0,1,1,.87,2.14L425,71.29A1.14,1.14,0,0,1,424.54,71.37Z"/><path class="cls-1" d="M424.54,71.37a1.14,1.14,0,0,1-1.15-1.15V59.28a1.16,1.16,0,0,1,2.31,0V70.22A1.15,1.15,0,0,1,424.54,71.37Z"/><path class="cls-1" d="M465.81,112a1.14,1.14,0,0,1-1.15-1.16V104.1H440.47a1.15,1.15,0,0,1-1.15-1.15V98.54a1.16,1.16,0,1,1,2.31,0v3.25h24.18A1.16,1.16,0,0,1,467,103v5.74l16.36-11.11a1.16,1.16,0,1,1,1.3,1.92l-18.17,12.33A1.16,1.16,0,0,1,465.81,112Z"/><path class="cls-1" d="M484,99.7a1.21,1.21,0,0,1-.65-.2L467,88.39v5.74a1.16,1.16,0,0,1-1.16,1.16H441.63v3.25a1.16,1.16,0,1,1-2.31,0V94.13A1.15,1.15,0,0,1,440.47,93h24.19V86.2a1.15,1.15,0,0,1,1.8-1l18.17,12.33A1.16,1.16,0,0,1,484,99.7Z"/><circle class="cls-1" cx="440.47" cy="94.13" r="2.31"/><circle class="cls-1" cx="440.47" cy="102.91" r="2.31"/><circle class="cls-1" cx="465.56" cy="110.87" r="2.31"/><circle class="cls-1" cx="465.56" cy="86.2" r="2.31"/><circle class="cls-1" cx="483.4" cy="98.54" r="2.31"/><circle class="cls-2" cx="483.35" cy="98.48" r="3.31"/><circle class="cls-2" cx="424.48" cy="71.07" r="3.31"/><path class="cls-3" d="M95.9,112.38q-1.23.27-2.46.45"/><path class="cls-4" d="M87.22,113.22A36.33,36.33,0,0,1,54.31,90.08"/><path class="cls-3" d="M53.31,87.12c-.23-.79-.44-1.6-.62-2.42"/><path class="cls-3" d="M371.23,112.38q-1.23.27-2.46.45"/><path class="cls-4" d="M362.55,113.22a36.33,36.33,0,0,1-32.91-23.14"/><path class="cls-3" d="M328.64,87.12c-.23-.79-.44-1.6-.62-2.42"/><path class="cls-3" d="M174.83,49.93c.29-.79.6-1.57.94-2.32"/><path class="cls-4" d="M178.79,42.16A36.31,36.31,0,0,1,216,26.86"/><path class="cls-3" d="M219,27.61c.79.23,1.59.49,2.37.78"/><path class="cls-1" d="M250.09,66.52a17.2,17.2,0,1,1,17.19-17.19A17.22,17.22,0,0,1,250.09,66.52Zm0-31.81a14.62,14.62,0,1,0,14.62,14.62A14.64,14.64,0,0,0,250.09,34.71Z"/><path class="cls-1" d="M250.09,57.86a8.54,8.54,0,1,1,8.54-8.53A8.55,8.55,0,0,1,250.09,57.86Zm0-14.5a6,6,0,1,0,6,6A6,6,0,0,0,250.09,43.36Z"/><path class="cls-1" d="M305.72,66.62a11.81,11.81,0,1,1,11.8-11.81A11.83,11.83,0,0,1,305.72,66.62Zm0-21a9.23,9.23,0,1,0,9.22,9.22A9.24,9.24,0,0,0,305.72,45.59Z"/><circle class="cls-1" cx="265.99" cy="49.33" r="2.77"/><circle class="cls-1" cx="251.77" cy="3.03" r="2.77"/><circle class="cls-1" cx="279.89" cy="3.08" r="2.77"/><circle class="cls-1" cx="281.63" cy="33.42" r="2.77"/><circle class="cls-1" cx="294.1" cy="22.14" r="2.77"/><circle class="cls-1" cx="326.63" cy="34.5" r="2.77"/><circle class="cls-1" cx="326.63" cy="18.79" r="2.77"/><circle class="cls-1" cx="250.09" cy="33.42" r="2.77"/><circle class="cls-1" cx="281.63" cy="49.33" r="2.77"/><circle class="cls-1" cx="296.87" cy="49.33" r="2.77"/><circle class="cls-1" cx="314.39" cy="49.33" r="2.77"/><path class="cls-1" d="M296.87,50.61H266A1.29,1.29,0,0,1,266,48h30.88a1.29,1.29,0,0,1,0,2.57Z"/><path class="cls-1" d="M281,20.94H250.09a1.29,1.29,0,1,1,0-2.58H281a1.29,1.29,0,1,1,0,2.58Z"/><path class="cls-1" d="M281.63,50.61a1.28,1.28,0,0,1-1.29-1.28V7.05a4.41,4.41,0,0,0-4.41-4.41H255.79a4.41,4.41,0,0,0-4.41,4.41V33.42a1.29,1.29,0,0,1-2.58,0V7.05a7,7,0,0,1,7-7h20.14a7,7,0,0,1,7,7V49.33A1.28,1.28,0,0,1,281.63,50.61Z"/><path class="cls-1" d="M281.43,21a1.29,1.29,0,0,1-.91-.38,1.27,1.27,0,0,1,0-1.82l15-15a12.17,12.17,0,0,1,17.18,0l14.83,14.83a1.29,1.29,0,0,1-1.83,1.82L310.9,5.63a9.58,9.58,0,0,0-13.53,0l-15,15A1.29,1.29,0,0,1,281.43,21Z"/><path class="cls-1" d="M326.63,35.78a1.29,1.29,0,0,1-.91-.38L304.13,13.81,282.54,35.4a1.29,1.29,0,0,1-1.82,0,1.27,1.27,0,0,1,0-1.82l22.5-22.51a1.29,1.29,0,0,1,1.82,0l22.51,22.51a1.29,1.29,0,0,1,0,1.82A1.33,1.33,0,0,1,326.63,35.78Z"/><path class="cls-1" d="M349.07,35.85H326.68a1.29,1.29,0,0,1-1.29-1.29V12a1.28,1.28,0,0,1,1.29-1.28h7.06A1.28,1.28,0,0,1,335,12V26.21h14a1.29,1.29,0,0,1,1.29,1.29v7.06A1.29,1.29,0,0,1,349.07,35.85ZM328,33.27h19.82V28.79H333.74a1.29,1.29,0,0,1-1.29-1.29V13.31H328Z"/><circle class="cls-5" cx="281.43" cy="19.65" r="3.32"/><circle class="cls-5" cx="349.07" cy="34.49" r="3.32"/><path class="cls-1" d="M314.68,50.67a1.28,1.28,0,0,1-1.28-1.29c0-7.31-2.16-13.38-6.41-18a30.64,30.64,0,0,0-13.24-8.12,1.29,1.29,0,1,1,.81-2.45,33.17,33.17,0,0,1,14.33,8.83c4.7,5.13,7.08,11.78,7.08,19.76A1.29,1.29,0,0,1,314.68,50.67Z"/><path class="cls-1" d="M151.85,105.4c-3.42,0-6.78-2.13-9.46-6a21.59,21.59,0,0,1-3.86-11.14A1.24,1.24,0,0,1,139.74,87,1.22,1.22,0,0,1,141,88.2c.2,7.79,6.23,14.72,10.84,14.72,2.59,0,5.33-1.85,7.52-5.08a19,19,0,0,0,3.33-9.93,1.24,1.24,0,0,1,2.48,0,21.51,21.51,0,0,1-3.76,11.32C158.73,103.21,155.33,105.4,151.85,105.4Z"/><path class="cls-1" d="M151.47,91c-9.87,0-20.36-2.93-20.36-8.35,0-3,3.4-5.58,9.32-7.08a1.25,1.25,0,0,1,1.51.9,1.23,1.23,0,0,1-.9,1.5c-5.15,1.3-7.45,3.29-7.45,4.68,0,2.45,6.8,5.87,17.88,5.87s17.89-3.42,17.89-5.87c0-1.62-2.74-3.41-7-4.56a1.24,1.24,0,0,1,.65-2.39c5.69,1.53,8.83,4,8.83,7C171.84,88,161.35,91,151.47,91Z"/><path class="cls-1" d="M151.26,86.44A31.71,31.71,0,0,1,138,83.56a1.25,1.25,0,0,1-.63-1.58l5.45-13.83a1.22,1.22,0,0,1,.44-.56c3.75-2.62,14.21-3,17.65.09a1.16,1.16,0,0,1,.35.55l4.41,13.83a1.23,1.23,0,0,1-.63,1.48A33.2,33.2,0,0,1,151.26,86.44Zm-11.18-4.67c10.28,4.22,19.85,1.16,22.86,0L159,69.33c-2.75-2-11-1.66-14,.1Z"/><path class="cls-1" d="M127.32,129.38a1.23,1.23,0,0,1-1.24-1.24c0-9.54,1.84-15,5.8-17.37,2.48-1.45,5.69-1.78,8.52-2.07,1.75-.18,3.93-.4,4.38-.9.65-.72.82-3.36.72-4.93a1.24,1.24,0,1,1,2.47-.15c.06.82.23,5-1.36,6.75-1.09,1.19-3.23,1.41-6,1.7s-5.5.56-7.52,1.74c-3.08,1.8-4.57,6.78-4.57,15.23A1.24,1.24,0,0,1,127.32,129.38Z"/><path class="cls-1" d="M176.39,129.38a1.23,1.23,0,0,1-1.24-1.24c0-8.45-1.5-13.43-4.57-15.23-2-1.18-5-1.48-7.53-1.74s-4.87-.51-6-1.7c-1.59-1.75-1.41-5.93-1.36-6.75a1.24,1.24,0,1,1,2.47.15c-.09,1.57.07,4.21.72,4.93.45.5,2.63.72,4.38.9,2.83.29,6,.62,8.53,2.07,3.95,2.32,5.79,7.83,5.79,17.37A1.23,1.23,0,0,1,176.39,129.38Z"/><path class="cls-1" d="M136.57,130.87a1.24,1.24,0,0,1-1.24-1.24V110.74a1.24,1.24,0,0,1,2.48,0v18.89A1.23,1.23,0,0,1,136.57,130.87Z"/><path class="cls-1" d="M166.26,130.87a1.24,1.24,0,0,1-1.24-1.24V110.74a1.24,1.24,0,0,1,2.48,0v18.89A1.23,1.23,0,0,1,166.26,130.87Z"/><path class="cls-1" d="M151.64,125.13a44.51,44.51,0,0,1-15.54-2.69,1.26,1.26,0,0,1-.77-1.15V110.84a1.24,1.24,0,0,1,2.48,0v9.58c3.05,1,14.7,4.38,27.21,0v-9.68a1.24,1.24,0,0,1,2.48,0v10.55a1.24,1.24,0,0,1-.8,1.16A42.71,42.71,0,0,1,151.64,125.13Z"/><path class="cls-1" d="M151.51,112.23a13,13,0,0,1-7.14-2.1,1.23,1.23,0,0,1-.37-1.71,1.25,1.25,0,0,1,1.72-.37c3.49,2.28,8,2.26,12.36,0a1.24,1.24,0,0,1,1.16,2.19A16.58,16.58,0,0,1,151.51,112.23Z"/><path class="cls-1" d="M118,93.31c-2.4,0-4.23-1.52-5.14-4.29a13.4,13.4,0,0,1-.63-3.84V71.43a1.24,1.24,0,0,1,2.48,0V85.19s0,5.64,3.29,5.64c9,0,9.24-5.3,9.25-5.53V71.43a1.24,1.24,0,0,1,2.48,0V85.32C129.72,88.08,127.27,93.31,118,93.31Z"/><path class="cls-1" d="M117.37,93.31c-9.27,0-11.73-5.23-11.73-8V71.43a1.24,1.24,0,0,1,2.48,0V85.32c0,.21.22,5.51,9.25,5.51,3.24,0,3.29-5.59,3.29-5.65V71.43a1.24,1.24,0,0,1,2.48,0V85.19a13.4,13.4,0,0,1-.63,3.83C121.6,91.79,119.78,93.31,117.37,93.31Z"/><path class="cls-1" d="M117.37,130.87a1.23,1.23,0,0,1-1.24-1.24V92.07a1.24,1.24,0,1,1,2.48,0v37.56A1.24,1.24,0,0,1,117.37,130.87Z"/><circle class="cls-1" cx="166.26" cy="121.2" r="2.67"/><circle class="cls-1" cx="137.04" cy="121.2" r="2.67"/><circle class="cls-1" cx="163.75" cy="82.61" r="2.7"/><circle class="cls-1" cx="139.08" cy="82.48" r="2.7"/><circle class="cls-2" cx="117.37" cy="92.07" r="2.7"/><circle class="cls-1" cx="143.99" cy="68.73" r="2.7"/><circle class="cls-1" cx="160.37" cy="68.73" r="2.7"/><circle class="cls-1" cx="136.57" cy="110.74" r="2.67"/><circle class="cls-1" cx="166.26" cy="110.74" r="2.67"/><circle class="cls-1" cx="176.39" cy="128.85" r="2.67"/><circle class="cls-2" cx="127.22" cy="128.85" r="2.67"/><circle class="cls-1" cx="29.94" cy="2.67" r="2.67"/><circle class="cls-1" cx="56.73" cy="2.67" r="2.67"/><circle class="cls-1" cx="56.73" cy="27.33" r="2.67"/><circle class="cls-1" cx="29.82" cy="27.33" r="2.67"/><circle class="cls-1" cx="3.31" cy="27.33" r="2.67"/><circle class="cls-1" cx="29.82" cy="51.99" r="2.67"/><circle class="cls-1" cx="3.31" cy="51.99" r="2.67"/><path class="cls-1" d="M56.73,53H2.91a1,1,0,0,1-1-1V2.67a1,1,0,0,1,1.05-1H56.73a1,1,0,0,1,1.05,1V52A1,1,0,0,1,56.73,53ZM4,50.94H55.68V3.72H4Z"/><path class="cls-1" d="M29.82,53a1,1,0,0,1-1.05-1V2.67a1.05,1.05,0,0,1,2.1,0V52A1,1,0,0,1,29.82,53Z"/><path class="cls-1" d="M56.73,28.38H2.91a1.05,1.05,0,1,1,0-2.1H56.73a1.05,1.05,0,1,1,0,2.1Z"/><path class="cls-1" d="M48,15.63a1.09,1.09,0,0,1-1.09-1.1V9.79a1.1,1.1,0,1,1,2.19,0v4.74A1.1,1.1,0,0,1,48,15.63Z"/><path class="cls-1" d="M45.77,12.46a1.09,1.09,0,0,1-.63-2l2.25-1.58a1.09,1.09,0,1,1,1.26,1.79L46.4,12.26A1,1,0,0,1,45.77,12.46Z"/><path class="cls-1" d="M50.26,12.46a1,1,0,0,1-.63-.2l-2.25-1.58a1.08,1.08,0,0,1-.27-1.52,1.09,1.09,0,0,1,1.53-.27l2.25,1.58a1.09,1.09,0,0,1-.63,2Z"/><path class="cls-1" d="M57.58,59.33H2.3a1.05,1.05,0,0,1,0-2.1H57.58a1,1,0,1,1,0,2.1Z"/><path class="cls-1" d="M9.28,66.3h-7a1,1,0,0,1-1-1v-7a1,1,0,0,1,1-1.05h7a1,1,0,0,1,1.05,1.05v7A1,1,0,0,1,9.28,66.3ZM3.35,64.2H8.23V59.33H3.35Z"/><path class="cls-1" d="M33.31,66.3h-7a1,1,0,0,1-1-1v-7a1,1,0,0,1,1-1.05h7a1,1,0,0,1,1,1.05v7A1,1,0,0,1,33.31,66.3Zm-5.93-2.1h4.88V59.33H27.38Z"/><path class="cls-1" d="M57.58,66.3h-7a1,1,0,0,1-1.05-1v-7a1,1,0,0,1,1.05-1.05h7a1,1,0,0,1,1.05,1.05v7A1,1,0,0,1,57.58,66.3Zm-5.93-2.1h4.88V59.33H51.65Z"/><circle class="cls-2" cx="3.31" cy="3.31" r="3.31"/><circle class="cls-2" cx="56.73" cy="51.35" r="3.31"/></g></g></svg>