<svg xmlns="http://www.w3.org/2000/svg" viewBox="0 0 33 43.23"><defs><style>.cls-1{fill:#fff;}</style></defs><title>Fichier 7</title><g id="Calque_2" data-name="Calque 2"><g id="invariants"><path class="cls-1" d="M32,42.32H1.08v-27H32ZM2.78,40.62H30.3V17H2.78Z"/><path class="cls-1" d="M1.92,16.72a.77.77,0,0,1-.41-.11.84.84,0,0,1-.32-1.16L9.38,1,23.71,1l8.17,14.36a.85.85,0,1,1-1.47.84L22.72,2.73l-12.35,0L2.66,16.29A.83.83,0,0,1,1.92,16.72Z"/><path class="cls-1" d="M21.14,42.35H11.07V26.49H21.14Zm-8.37-1.7h6.67V28.19H12.77Z"/><circle class="cls-1" cx="1.93" cy="16.16" r="1.85"/><circle class="cls-1" cx="31.15" cy="16.16" r="1.85"/><circle class="cls-1" cx="23.33" cy="1.85" r="1.85"/><circle class="cls-1" cx="9.76" cy="1.85" r="1.85"/><circle class="cls-1" cx="20.31" cy="27.32" r="1.85"/><circle class="cls-1" cx="11.81" cy="27.22" r="1.85"/><circle class="cls-1" cx="1.85" cy="41.18" r="1.85"/><circle class="cls-1" cx="30.95" cy="41.28" r="1.85"/><circle class="cls-1" cx="20.41" cy="41.38" r="1.85"/><circle class="cls-1" cx="11.91" cy="41.28" r="1.85"/></g></g></svg>