<svg xmlns="http://www.w3.org/2000/svg" viewBox="0 0 46.89 42.55"><defs><style>.cls-1{fill:#fff;}</style></defs><title>Fichier 3</title><g id="Calque_2" data-name="Calque 2"><g id="invariants"><path class="cls-1" d="M46,39c-.13-5.44-1.31-8.65-3.69-10a8.25,8.25,0,0,0-2-.8,1.71,1.71,0,0,0-2.69-.45l-.71-.07A7.49,7.49,0,0,1,34,27c-.42-.46-.52-2.15-.46-3.15h0a11.5,11.5,0,0,0,2.06-2.32A14.08,14.08,0,0,0,38,14.94c2.54-.9,4.29-2.25,4.29-4S40.42,7.6,37.06,6.62L36,3.4a1.71,1.71,0,0,0,.65-1.34A1.73,1.73,0,0,0,35,.33a1.75,1.75,0,0,0-1,.31,14.48,14.48,0,0,0-8.5,0,1.7,1.7,0,0,0-1-.31,1.73,1.73,0,0,0-1.72,1.73,1.77,1.77,0,0,0,.38,1.08L21.82,6.52c-3.53,1-5.56,2.56-5.56,4.41s2,3.27,4.79,4.17a14,14,0,0,0,2.42,6.55,11,11,0,0,0,2,2.21h0c.06,1-.05,2.69-.46,3.15a7.49,7.49,0,0,1-2.8.57L21,27.72a1.7,1.7,0,0,0-2.83.58,7.7,7.7,0,0,0-1.41.61c-2.3,1.35-3.48,4.41-3.67,9.56a2.11,2.11,0,1,0,1.59.05c.17-4.49,1.11-7.2,2.88-8.24a5.78,5.78,0,0,1,.84-.37,1.87,1.87,0,0,0,.57.48v3.89a1.68,1.68,0,0,0-.61,1.3,1.72,1.72,0,0,0,.61,1.3V41a.79.79,0,1,0,1.58,0V37.2a1.53,1.53,0,0,0,.55-.29,29.8,29.8,0,0,0,8.29,1.17,27.62,27.62,0,0,0,8.22-1.23,1.94,1.94,0,0,0,.33.23V41a.79.79,0,1,0,1.58,0V37.08a1.7,1.7,0,0,0,0-3V30.39a1.72,1.72,0,0,0,.67-.64,6,6,0,0,1,1.29.53c1.83,1.07,2.78,3.94,2.9,8.69A1.71,1.71,0,1,0,46,39ZM33.23,2v0a1.71,1.71,0,0,0,1.24,1.65l1.82,5.71a1.72,1.72,0,0,0-.89,1.37,20,20,0,0,1-12.32,0,1.72,1.72,0,0,0-.71-1.34L24.6,3.78a1.72,1.72,0,0,0,1.62-1.72h0A13.34,13.34,0,0,1,33.23,2Zm-15.38,8.9c0-.74,1-1.73,3.23-2.52l-.33.82a1.72,1.72,0,0,0,.61,3.34,1.66,1.66,0,0,0,1-.35,20.42,20.42,0,0,0,6.76,1.15A22.09,22.09,0,0,0,36,12.26a1.72,1.72,0,0,0,2.81-1.33A1.71,1.71,0,0,0,38,9.43l-.3-.95c1.88.7,3.05,1.61,3.05,2.45s-1.24,1.83-3.45,2.59h0a.73.73,0,0,0-.45.16,25.87,25.87,0,0,1-7.51,1C22.19,14.67,17.85,12.49,17.85,10.93Zm4.82,4.61a30,30,0,0,0,6.6.72,29.74,29.74,0,0,0,7.08-.83,12.64,12.64,0,0,1-2,5.22c-1.4,2.07-3.15,3.25-4.81,3.25C26.78,23.9,23.26,20.08,22.67,15.54Zm6.84,9.94A5.73,5.73,0,0,0,32,24.9a6.48,6.48,0,0,0,.55,2.69,7.59,7.59,0,0,1-6.07.06,6.59,6.59,0,0,0,.59-2.76A5.59,5.59,0,0,0,29.51,25.48Zm-7.77,10A1.68,1.68,0,0,0,20.54,34V30.39a1.67,1.67,0,0,0,.87-1.12l.95-.11a13,13,0,0,0,2.75-.45,8.31,8.31,0,0,0,4.19,1.13,10.46,10.46,0,0,0,4.58-1.14,13.26,13.26,0,0,0,2.78.46l.38.05a1.73,1.73,0,0,0,.89,1.18v3.68A1.71,1.71,0,0,0,37,35.36,28.09,28.09,0,0,1,21.74,35.44Z"/><path class="cls-1" d="M9.51,17.66c4.58-.55,5.87-3.41,5.87-5V3.79a.8.8,0,0,0-1.59,0v8.86c0,.12-.1,2.45-3.4,3.25a5.42,5.42,0,0,0,.38-.88,8.83,8.83,0,0,0,.41-2.45V3.79a.8.8,0,0,0-1.59,0v8.78a6.15,6.15,0,0,1-.72,2.81A2.05,2.05,0,0,0,6.4,15.2a6.41,6.41,0,0,1-.62-2.63V3.79a.79.79,0,1,0-1.58,0v8.78A8.61,8.61,0,0,0,4.6,15,5.44,5.44,0,0,0,5,15.9c-3.3-.8-3.4-3.13-3.41-3.25V3.79A.79.79,0,0,0,.79,3,.79.79,0,0,0,0,3.79v8.86c0,1.55,1.21,4.32,5.51,5A2.12,2.12,0,0,0,6.7,18.93V41a.79.79,0,1,0,1.58,0V19A2.12,2.12,0,0,0,9.51,17.66Z"/></g></g></svg>