<svg xmlns="http://www.w3.org/2000/svg" viewBox="0 0 48.55 42.56"><defs><style>.cls-1{fill:#fff;}</style></defs><title>Fichier 6</title><g id="Calque_2" data-name="Calque 2"><g id="invariants"><circle class="cls-1" cx="2.14" cy="15.71" r="2.14"/><circle class="cls-1" cx="41.73" cy="15.71" r="2.14"/><circle class="cls-1" cx="4.23" cy="38.44" r="2.14"/><path class="cls-1" d="M34.87,40.64h-27a7,7,0,0,1-7-7v-23a7,7,0,0,1,7-7H9.36a1,1,0,1,1,0,2H7.83a5,5,0,0,0-5,5v23a5,5,0,0,0,5,5h27a1,1,0,0,1,0,2Z"/><path class="cls-1" d="M41.78,27.86a1,1,0,0,1-1-1V10.66a5,5,0,0,0-5-5h-2a1,1,0,1,1,0-2h2a7,7,0,0,1,7,7v16.2A1,1,0,0,1,41.78,27.86Z"/><path class="cls-1" d="M27.48,5.63h-12a1,1,0,0,1,0-2h12a1,1,0,1,1,0,2Z"/><path class="cls-1" d="M40.41,16.73H2.16a1,1,0,0,1,0-2H40.41a1,1,0,1,1,0,2Z"/><path class="cls-1" d="M12.34,13.66a3.52,3.52,0,1,1,3.52-3.52A3.53,3.53,0,0,1,12.34,13.66Zm0-5a1.53,1.53,0,1,0,1.53,1.52A1.53,1.53,0,0,0,12.34,8.62Z"/><path class="cls-1" d="M30.67,13.76a3.52,3.52,0,1,1,3.51-3.51A3.52,3.52,0,0,1,30.67,13.76Zm0-5a1.53,1.53,0,1,0,1.52,1.53A1.53,1.53,0,0,0,30.67,8.72Z"/><path class="cls-1" d="M12.35,8.17a1,1,0,0,1-1-1v-6a1,1,0,0,1,2,0v6A1,1,0,0,1,12.35,8.17Z"/><path class="cls-1" d="M30.68,8.17a1,1,0,0,1-1-1V1a1,1,0,0,1,2,0V7.17A1,1,0,0,1,30.68,8.17Z"/><path class="cls-1" d="M40.15,42.56a8.4,8.4,0,1,1,8.4-8.4A8.41,8.41,0,0,1,40.15,42.56Zm0-14.81a6.41,6.41,0,1,0,6.41,6.41A6.42,6.42,0,0,0,40.15,27.75Z"/><path class="cls-1" d="M40.1,35.19a1,1,0,0,1-1-1V30.11a1,1,0,0,1,2,0V34.2A1,1,0,0,1,40.1,35.19Z"/><path class="cls-1" d="M44.19,35.19H40.1a1,1,0,0,1,0-2h4.09a1,1,0,0,1,0,2Z"/></g></g></svg>